<?xml version="1.0" encoding="UTF-8" standalone="no"?>
<svg id="svg2" xmlns:rdf="http://www.w3.org/1999/02/22-rdf-syntax-ns#" xmlns="http://www.w3.org/2000/svg" height="145.68mm" width="321.72mm" version="1.1" xmlns:cc="http://creativecommons.org/ns#" xmlns:dc="http://purl.org/dc/elements/1.1/" viewBox="0 0 1139.9673 516.18385">
<g id="layer1" transform="translate(4887.1 1170.5)">
<g id="g4144">
<path id="path2054" d="m-4177.3-1148.8 150.32-0.027 0.054 85.78-64.436 0.1882-64.516 0.026-21.371-0.1613-0.054-85.806z" fill="#0ff"/>
<path id="path2084" d="m-4134.2-998.27 21.263-0.08 0.1614 21.452-21.559-0.027 0.1344-21.344zm0-43.118 21.371 0.08-0.08 21.371-21.371-0.08zm-107.58-129.01 236.45 0.054-0.054 279.41-21.317 0.1882-0.1881 107.23-21.398 0.24187-21.317-0.24187-0.3764-21.156-21.129-0.3762-0.3763-21.237-85.645 0.054-0.3763 21.183-21.129 0.3763-0.3763 21.129-21.183 0.37625-0.1612 21.264-64.462-0.0275-0.026-21.371 21.398-0.18812 0.1345-21.317 42.876-0.1613 0.215-42.823 42.823-0.1881 0.1881-42.822 42.823-0.1883 0.1881-42.822 42.796-0.1882 0.1345-21.371 42.93-0.1344-0.054-21.317-42.903-0.1075v-85.968l64.435-0.1881-0.054-85.78-150.32 0.027 0.054 85.806 21.371 0.1612 0.026 85.968v21.505l-0.1344 42.903-42.823 0.2151-0.1881 42.822-42.822 0.1883-0.1883 42.822-42.796 0.1881-0.1344 21.371-64.382 0.1881-0.1075 21.344-0.028 21.452-171.96-0.0275-0.215-21.237-21.156-0.37625-0.3763-21.129-21.129-0.3763-0.3764-21.237-85.645 0.054-0.3763 21.183-21.129 0.3762-0.3763 21.129-21.183 0.37625-0.1613 21.264-42.93-0.0275 0.026-85.86 21.344-0.215 0.215-21.371 408.28-0.081 0.3762-21.236 21.129-0.3763 0.3762-21.183 21.317-0.1612 21.425-0.081 0.054-214.89 0.08-43.011z" fill="#008000"/>
<path id="path2232" d="m-3854.7-761.71 21.371-0.18813 0.1881 21.452 21.398 0.1345-0.026 21.425-21.398 0.18825-0.1613 21.344h-21.452l0.081-64.355zm-43.038-0.18813 21.29 0.16125 0.1612 64.382h-21.425l-0.215-21.344-21.371-0.18825-0.027-21.425 21.398-0.1345 0.1881-21.452zm-258.04 0.1075 42.876 0.0275-0.028 42.876-42.876-0.0275 0.027-42.876zm-473.12 0 42.876 0.0275-0.026 42.876-42.876-0.0275 0.028-42.876zm795.73-21.398 64.382-0.16125v21.425l-21.344 0.215-0.1881 21.371-21.425 0.0275-0.1612-21.425-21.425-0.16125 0.1613-21.29zm-129.11-0.16125 64.355 0.08 0.1881 21.371-21.452 0.18812-0.1345 21.398-21.425-0.0275-0.1882-21.398-21.344-0.16125v-21.452zm86.102-21.478 21.371 0.08-0.081 21.371-21.371-0.08 0.08-21.371zm-300.99-21.398 85.645-0.054 0.3764 21.237 21.129 0.3763 0.3764 21.156 21.317 0.24187 0.028 21.371-0.1344 64.489-21.317 0.21512-0.215 21.29-21.29 0.21513-0.215 21.317-85.806-0.0275-0.2151-21.344-21.29-0.21512-0.2151-21.29-21.317-0.21513-0.081-64.435 0.1612-21.264 21.183-0.37625 0.3763-21.129 21.129-0.3763 0.3763-21.183m21.452 21.425-0.215 21.317-21.29 0.215-0.215 21.29-21.344 0.215-0.026 42.796 21.317 0.21512 0.215 21.29 21.29 0.21513 0.2151 21.344 42.796 0.0275 0.2151-21.317 21.29-0.21512 0.2151-21.29 21.344-0.21513 0.026-42.796-21.317-0.215-0.2151-21.29-21.29-0.215-0.2151-21.344-42.796-0.028zm-494.57-21.424 85.645-0.054 0.3764 21.237 21.129 0.3763 0.3763 21.129 21.156 0.37625 0.2151 21.237-0.1613 64.516-21.317 0.21512-0.2151 21.29-21.29 0.21513-0.2152 21.317-85.806-0.0275-0.215-21.344-21.29-0.21512-0.215-21.29-21.317-0.21513-0.08-64.435 0.1612-21.264 21.183-0.37625 0.3763-21.129 21.129-0.3763 0.3764-21.183m21.452 21.425-0.2151 21.317-21.29 0.215-0.2152 21.29-21.344 0.215-0.028 42.796 21.317 0.21512 0.2151 21.29 21.29 0.21513 0.2152 21.344 42.796 0.0275 0.215-21.317 21.29-0.21512 0.215-21.29 21.344-0.21513 0.026-42.796-21.317-0.215-0.215-21.29-21.29-0.215-0.215-21.344-42.796-0.028zm817.1-43.09 21.425 0.028 0.1881 21.371 21.344 0.1881v21.452l-64.355-0.08-0.1881-21.371 21.425-0.1612 0.1612-21.425zm-129.01 0.0269 21.425-0.027 0.1614 21.425 21.425 0.1613-0.1612 21.29-64.382 0.1613v-21.425l21.344-0.1881 0.1882-21.398zm85.968-42.984h21.425l0.215 21.344 21.371 0.1881 0.026 21.425-21.425 0.1614-0.1612 21.425-21.29-0.1613-0.1612-64.382zm-42.957 0h21.452l-0.1612 64.382-21.29 0.1613-0.1881-21.452-21.398-0.1344 0.028-21.425 21.371-0.1881 0.1882-21.344z"/>
<path id="path2260" d="m-3811.7-740.31 21.425-0.0275 0.054 21.478-21.505-0.0275 0.026-21.425zm-129.01-0.0269 21.425 0.0275 0.028 21.425-21.478 0.0537 0.028-21.505zm107.42-21.559 21.425 0.16125 0.1612 21.425-21.398-0.1345zm-85.86 0.18813 21.452-0.18813-0.1881 21.452-21.398 0.1345zm-430.11-42.984 64.382-0.1882 21.559 0.08-0.1344 21.317-21.398 0.18812-64.516-0.0537 0.1075-21.344zm516.13-43.038 21.425-0.1614-0.1612 21.425-21.425 0.1613zm-86.156-0.1614 21.398 0.1344 0.1881 21.452-21.425-0.1613zm107.55-21.425 21.478-0.054-0.026 21.505-21.425-0.027-0.026-21.425zm-129.03-0.0268 21.505 0.027-0.027 21.425-21.425 0.027-0.054-21.478zm64.516-21.505h21.505l0.1612 64.382 21.29 0.1613 0.1881 21.371 64.355 0.08v21.505l-64.382 0.16125-0.1613 21.29-21.371 0.18812-0.081 64.355h-21.505l-0.1613-64.382-21.29-0.16125-0.1881-21.371-64.355-0.08v-21.505l64.382-0.1612 0.1612-21.29 21.29-0.1613 0.1613-64.382m0.1075 86.021-0.08 21.371 21.371 0.08 0.081-21.371-21.371-0.08zm-279.65-172.07 21.452-0.028 21.559 0.028 21.478-0.028 42.903 0.1075 0.054 21.317-42.93 0.1344-64.516-0.026v-21.505zm-731.1-85.968 128.9 0.028 0.026 42.876-85.941 0.1344-0.215 21.371-42.822-0.027 0.054-64.382zm623.55-64.462 21.478-0.054-0.054 214.89-21.425 0.081v-214.92z" fill="#808080"/>
<path id="path2278" d="m-3897.7-697.35h21.425 21.505 21.452l-0.026 21.478-64.382-0.08 0.028-21.398zm64.543-21.344 21.398-0.18825 21.505 0.0275-0.08 21.478-42.984 0.0275 0.1613-21.344zm-107.61-0.13438 21.478-0.0537 21.371 0.18825 0.215 21.344-43.038-0.0537-0.027-21.425zm150.65-42.876 21.344-0.215-0.054 43.038-21.425 0.0275-0.054-21.478 0.1881-21.371zm-172.15-0.18813 21.344 0.16125 0.1882 21.398-0.027 21.505-21.478-0.0813-0.026-42.984zm-387.12-21.452 64.516 0.0537 0.026 21.371-0.1344 64.57-21.317-0.08-0.2152-21.371-21.29 0.08-0.2151 21.371-21.317-0.08-0.08-64.462 0.028-21.452m21.613 21.532-0.08 21.371 21.371 0.0813 0.08-21.371-21.371-0.08zm172.07-42.984 42.796 0.027 0.2152 21.344 21.29 0.215 0.2151 21.29 21.317 0.215-0.026 42.796-21.344 0.21512-0.2152 21.29-21.29 0.21513-0.2151 21.317-42.796-0.0275-0.2151-21.344-21.29-0.21512-0.215-21.29-21.317-0.21513 0.026-42.796 21.344-0.215 0.215-21.29 21.29-0.215 0.2151-21.317m-0.054 43.011-0.028 42.876 42.876 0.0275 0.028-42.876zm-473.06-43.01 42.796 0.027 0.215 21.344 21.29 0.215 0.215 21.29 21.317 0.215-0.026 42.796-21.344 0.21512-0.215 21.29-21.29 0.21513-0.215 21.317-42.796-0.0275-0.215-21.344-21.29-0.21512-0.2152-21.29-21.317-0.21513 0.027-42.796 21.344-0.215 0.2151-21.29 21.29-0.215 0.2151-21.317m-0.054 43.011-0.026 42.876 42.876 0.0275 0.026-42.876zm860.11-64.516 21.478 0.028-0.081 64.382-21.398-0.0275v-21.425-21.505-21.452zm-21.505-43.064 21.478 0.081 0.027 42.984-21.344-0.1881-0.1881-21.371 0.026-21.505zm-171.94 0.0537 21.425-0.027 0.054 21.478-0.1883 21.398-21.344 0.1881 0.054-43.038zm128.87-21.532 43.038 0.054 0.026 21.425-21.478 0.054-21.371-0.1881-0.215-21.344zm-107.37 0.0269 42.984-0.028-0.1881 21.344-21.371 0.1881-21.505-0.028 0.08-21.478zm-86.022 0.0806 21.317-0.1882 0.1882 86.048 21.344-0.081 0.215-21.344 21.398 0.027v21.425 21.505 21.452l-21.452-0.0275-0.215-21.398-21.29 0.08-0.215 21.344h-42.85l-0.027-21.371 21.398-0.24187 0.1882-107.23zm129.03-21.586 64.382 0.08-0.026 21.398h-21.425-21.505-21.452l0.028-21.478zm-258.12-43.064 64.516 0.026-0.1344 21.371-42.796 0.1882-0.1882 42.822-42.822 0.1883-0.1882 42.822-42.823 0.1881-0.215 42.823-42.876 0.1613-21.559-0.08 0.1345-21.371 42.796-0.1881 0.1881-42.822 42.823-0.1883 0.1881-42.822 42.823-0.2151 0.1344-42.903zm-0.027-107.47 64.516-0.026v85.968l-21.478 0.027-0.1614-21.452-21.263 0.08-0.1344 21.344-21.452 0.027-0.026-85.968m21.613 21.478-0.08 21.371 21.371 0.08 0.08-21.371zm-580.62-129.01 408.39 0.026 0.2151 21.344 21.29 0.215 0.2152 21.29 21.371 0.1881v214.92l-21.317 0.1612-0.3764 21.183-21.129 0.3763-0.3763 21.236-408.28 0.081-0.242-21.425-21.317-0.2151-0.2152-21.29-21.317-0.2151-0.054-107.45-0.026-42.876 0.1344-64.516 21.317-0.2151 0.215-21.29 21.29-0.215 0.215-21.317z" fill="#c0c0c0"/>
</g>
</g>
</svg>
